<?xml version="1.0" encoding="UTF-8"?>
<svg id="Capa_1" data-name="Capa 1" xmlns="http://www.w3.org/2000/svg" viewBox="0 0 524.98 475.13">
  <defs>
    <style>
      .cls-1 {
        fill: #fff;
      }
    </style>
  </defs>
  <path class="cls-1" d="M213.94,252.16c3.48,1.16,6.21,3.89,7.37,7.37l8.66,25.99,28.01-70.03-70.03,28.01,25.99,8.66Z"/>
  <path class="cls-1" d="M317.04,51.87c-12.94,0-23.43,10.49-23.43,23.43,0,18.05-14.67,32.7-32.71,32.7h-88.82c-18.03,0-32.71-14.67-32.71-32.7,0-12.94-10.49-23.43-23.43-23.43s-23.43,10.49-23.43,23.43v350.87c0,12.94,10.49,23.43,23.43,23.43h201.1c12.94,0,23.43-10.49,23.43-23.43V75.3c0-12.94-10.49-23.43-23.43-23.43ZM266.42,399.68h-99.85c-6.44,0-11.65-5.22-11.65-11.65s5.22-11.65,11.65-11.65h99.85c6.44,0,11.65,5.22,11.65,11.65s-5.22,11.65-11.65,11.65ZM289.72,198.9l-49.92,124.81c-1.77,4.43-6.07,7.32-10.82,7.32-.11,0-.23,0-.34,0-4.89-.14-9.17-3.32-10.71-7.96l-16.88-50.64-50.64-16.88c-4.64-1.55-7.82-5.82-7.96-10.71s2.78-9.35,7.32-11.16l124.81-49.92c4.33-1.73,9.27-.72,12.57,2.58,3.3,3.3,4.31,8.24,2.58,12.57h0Z"/>
  <path class="cls-1" d="M172.09,84.7h88.82c5.18,0,9.4-4.22,9.4-9.4,0-8.37,2.18-16.39,6.27-23.43h-120.16c4.09,7.04,6.27,15.06,6.27,23.42,0,5.2,4.22,9.41,9.4,9.41Z"/>
  <path class="cls-1" d="M391.23,95.55c-6.44,0-11.65,5.22-11.65,11.65s5.22,11.65,11.65,11.65c17.66,0,32.03,14.37,32.03,32.03,0,6.44,5.22,11.65,11.65,11.65s11.65-5.22,11.65-11.65c0-30.51-24.82-55.34-55.34-55.34Z"/>
  <path class="cls-1" d="M391.23,51.87c-6.44,0-11.65,5.22-11.65,11.65s5.22,11.65,11.65,11.65c41.75,0,75.72,33.97,75.72,75.72,0,6.44,5.22,11.65,11.65,11.65s11.65-5.22,11.65-11.65c0-54.6-44.42-99.02-99.02-99.02Z"/>
  <circle class="cls-1" cx="391.23" cy="150.89" r="11.65"/>
</svg>