<?xml version="1.0" encoding="UTF-8"?>
<svg id="Capa_1" data-name="Capa 1" xmlns="http://www.w3.org/2000/svg" viewBox="0 0 524.98 475.13">
  <defs>
    <style>
      .cls-1 {
        fill: #fff;
      }
    </style>
  </defs>
  <path class="cls-1" d="M96.3,278.36l-14.49,51.16c-3.59,12.49-1.06,25.65,6.78,36.15,7.84,10.37,19.8,16.35,32.96,16.35h158.67l1.73-30.57-21.13-25.91c-8.51-10.5-11.03-24.59-6.91-37.48,4.25-12.89,14.62-22.72,27.64-26.18l32.29-8.64,18.21-28.04c5.71-8.9,14.75-15.02,24.85-17.28,8.64-15.28,13.29-32.82,13.29-50.9,0-57.41-46.64-104.05-103.92-104.05s-103.92,46.64-103.92,104.05c0,18.34,4.78,36.15,13.69,51.69-37.34,5.45-69.24,32.56-79.73,69.63Z"/>
  <path class="cls-1" d="M443.34,288.2c-1.4-4.28-4.85-7.57-9.2-8.73l-42.14-11.28-23.75-36.6c-4.91-7.53-17.39-7.53-22.3,0l-23.75,36.6-42.13,11.28c-4.35,1.17-7.81,4.45-9.2,8.73-1.39,4.27-.52,8.97,2.31,12.46l27.45,33.9-2.29,43.57c-.24,4.5,1.82,8.81,5.46,11.45,3.64,2.65,8.38,3.3,12.58,1.66l40.72-15.64,40.72,15.64c1.54.6,3.15.88,4.76.88,2.76,0,5.51-.87,7.81-2.54,3.64-2.63,5.7-6.94,5.46-11.45l-2.29-43.57,27.45-33.88c2.84-3.5,3.71-8.2,2.32-12.47Z"/>
</svg>