<?xml version="1.0" encoding="UTF-8"?>
<svg id="Capa_1" data-name="Capa 1" xmlns="http://www.w3.org/2000/svg" viewBox="0 0 524.98 475.13">
  <defs>
    <style>
      .cls-1 {
        fill: #fff;
      }
    </style>
  </defs>
  <g id="Smartphone">
    <path class="cls-1" d="M147.23,105.47h161.88v242.83h-161.88V105.47Z"/>
    <path class="cls-1" d="M325.31,356.39c-.01,4.46-3.63,8.08-8.09,8.09h-178.07c-4.46-.01-8.08-3.63-8.09-8.09V97.38c.01-4.46,3.63-8.08,8.09-8.09h178.07c4.46.01,8.08,3.63,8.09,8.09v116.39c8.27-12.55,19.36-23,32.38-30.52v-102.07c0-22.35-18.12-40.46-40.47-40.47h-178.07c-22.35,0-40.46,18.12-40.47,40.47v291.39c0,22.35,18.12,40.46,40.47,40.47h178.07c20.53,0,37.8-15.38,40.15-35.78-11.9-17.89-22.61-36.55-32.05-55.85v34.97ZM260.55,56.91h8.09c4.47,0,8.09,3.62,8.09,8.09s-3.62,8.09-8.09,8.09h-8.09c-4.47,0-8.09-3.62-8.09-8.09s3.62-8.09,8.09-8.09ZM187.7,56.91h48.57c4.47,0,8.09,3.62,8.09,8.09s-3.62,8.09-8.09,8.09h-48.57c-4.47,0-8.09-3.62-8.09-8.09s3.62-8.09,8.09-8.09ZM236.27,396.87h-16.19c-4.47,0-8.09-3.62-8.09-8.09s3.62-8.09,8.09-8.09h16.19c4.47,0,8.09,3.62,8.09,8.09s-3.62,8.09-8.09,8.09Z"/>
    <circle class="cls-1" cx="406.25" cy="267.36" r="32.38"/>
    <path class="cls-1" d="M406.25,186.42c-44.68.05-80.89,36.26-80.94,80.94,0,41.72,66.84,132.27,74.46,142.45,2.68,3.58,7.75,4.31,11.33,1.63.62-.46,1.17-1.01,1.63-1.63,7.62-10.18,74.46-100.73,74.46-142.45-.05-44.68-36.26-80.89-80.94-80.94h0ZM406.25,315.92c-26.82,0-48.57-21.74-48.57-48.57s21.74-48.57,48.57-48.57,48.57,21.74,48.57,48.57c-.03,26.81-21.76,48.54-48.57,48.57Z"/>
  </g>
</svg>