<?xml version="1.0" encoding="UTF-8"?>
<svg id="Capa_1" data-name="Capa 1" xmlns="http://www.w3.org/2000/svg" viewBox="0 0 2754.37 1504.74">
  <defs>
    <style>
      .cls-1 {
        fill-rule: evenodd;
      }

      .cls-1, .cls-2 {
        fill: #fff;
      }
    </style>
  </defs>
  <g id="Icon">
    <path class="cls-1" d="M2082.36,1180.28v-140.81h-298.67v298.67h248.84c-8.71-17.78-14.18-36.11-14.18-53.33,0-45.56,26.02-85.09,64-104.52Z"/>
    <path class="cls-1" d="M2082.36,1018.14h-298.67v-10.67c0-8.49,3.37-16.63,9.38-22.62,5.99-6.01,14.13-9.38,22.62-9.38h234.67c8.49,0,16.63,3.37,22.62,9.38,6.01,5.99,9.38,14.13,9.38,22.62v10.67Z"/>
    <path class="cls-1" d="M2044.66,1359.47h-260.96v32c0,8.49,3.37,16.63,9.38,22.62,5.99,6.01,14.13,9.38,22.62,9.38h234.67c8.49,0,16.63-3.37,22.62-9.38,3.01-3,5.34-6.54,6.94-10.38-8.25-8.79-16.98-18.87-25.11-29.67-3.55-4.74-6.97-9.6-10.17-14.57ZM1986.36,1380.81h-85.33c-5.89,0-10.67,4.78-10.67,10.67s4.78,10.67,10.67,10.67h85.33c5.89,0,10.67-4.78,10.67-10.67s-4.78-10.67-10.67-10.67Z"/>
    <path class="cls-1" d="M2135.7,1188.81c52.98,0,96,43.02,96,96,0,25.15-14.35,52.68-32.18,76.42-25.34,33.74-57.03,59.82-57.03,59.82-3.95,3.24-9.62,3.24-13.57,0s-31.69-26.08-57.03-59.82c-17.83-23.73-32.18-51.26-32.18-76.42,0-52.98,43.02-96,96-96h0ZM2135.7,1231.47c-29.44,0-53.33,23.89-53.33,53.33s23.89,53.33,53.33,53.33,53.33-23.89,53.33-53.33-23.89-53.33-53.33-53.33ZM2135.7,1252.81c17.66,0,32,14.34,32,32s-14.34,32-32,32-32-14.34-32-32,14.34-32,32-32Z"/>
  </g>
  <g id="Smartphone">
    <path class="cls-2" d="M835.83,1078.06h161.88v242.83h-161.88v-242.83Z"/>
    <path class="cls-2" d="M1013.9,1328.98c-.01,4.46-3.63,8.08-8.09,8.09h-178.07c-4.46-.01-8.08-3.63-8.09-8.09v-259.01c.01-4.46,3.63-8.08,8.09-8.09h178.07c4.46.01,8.08,3.63,8.09,8.09v116.39c8.27-12.55,19.36-23,32.38-30.52v-102.07c0-22.35-18.12-40.46-40.47-40.47h-178.07c-22.35,0-40.46,18.12-40.47,40.47v291.39c0,22.35,18.12,40.46,40.47,40.47h178.07c20.53,0,37.8-15.38,40.15-35.78-11.9-17.89-22.61-36.55-32.05-55.85v34.97ZM949.15,1029.5h8.09c4.47,0,8.09,3.62,8.09,8.09s-3.62,8.09-8.09,8.09h-8.09c-4.47,0-8.09-3.62-8.09-8.09s3.62-8.09,8.09-8.09ZM876.3,1029.5h48.57c4.47,0,8.09,3.62,8.09,8.09s-3.62,8.09-8.09,8.09h-48.57c-4.47,0-8.09-3.62-8.09-8.09s3.62-8.09,8.09-8.09ZM924.87,1369.45h-16.19c-4.47,0-8.09-3.62-8.09-8.09s3.62-8.09,8.09-8.09h16.19c4.47,0,8.09,3.62,8.09,8.09s-3.62,8.09-8.09,8.09Z"/>
    <circle class="cls-2" cx="1094.84" cy="1239.95" r="32.38"/>
    <path class="cls-2" d="M1094.84,1159c-44.68.05-80.89,36.26-80.94,80.94,0,41.72,66.84,132.27,74.46,142.45,2.68,3.58,7.75,4.31,11.33,1.63.62-.46,1.17-1.01,1.63-1.63,7.62-10.18,74.46-100.73,74.46-142.45-.05-44.68-36.26-80.89-80.94-80.94h0ZM1094.84,1288.51c-26.82,0-48.57-21.74-48.57-48.57s21.74-48.57,48.57-48.57,48.57,21.74,48.57,48.57c-.03,26.81-21.76,48.54-48.57,48.57Z"/>
  </g>
  <g>
    <path class="cls-2" d="M1479.74,1184.75l18.41-28.03c2.98-6.28,2.6-13.25-1.06-19.21-3.73-6.06-10.21-9.68-17.35-9.68s-13.63,3.62-17.35,9.68c-3.67,5.96-4.04,12.93-1.06,19.21l18.42,28.03Z"/>
    <path class="cls-2" d="M1418.52,1241.47c0,4.62,3.76,8.38,8.38,8.38h105.7c4.62,0,8.38-3.76,8.38-8.38v-169.97h-122.46v169.97ZM1444.2,1126.31c7.65-12.43,20.93-19.85,35.55-19.85s27.9,7.42,35.55,19.85c7.62,12.39,8.25,27.54,1.69,40.53-.18.36-.38.71-.61,1.05l-27.71,42.18c-1.97,3.01-5.33,4.81-8.93,4.81s-6.95-1.81-8.92-4.81l-27.71-42.18c-.22-.34-.42-.69-.61-1.05-6.56-12.98-5.93-28.14,1.69-40.53Z"/>
    <path class="cls-2" d="M1554.43,1017.21h-149.38c-22.34,0-40.51,18.17-40.51,40.51v283.49c0,22.34,18.17,40.51,40.51,40.51h149.38c22.34,0,40.52-18.17,40.52-40.51v-283.49c0-22.34-18.17-40.51-40.51-40.51ZM1455.91,1314.91c0-5.9,4.78-10.68,10.68-10.68h26.31c5.9,0,10.68,4.78,10.68,10.68s-4.78,10.68-10.68,10.68h-26.31c-5.9,0-10.68-4.78-10.68-10.68ZM1532.59,1271.2h-105.7c-16.4,0-29.74-13.34-29.74-29.74v-180.65c0-5.9,4.78-10.68,10.68-10.68h143.82c5.9,0,10.68,4.78,10.68,10.68v180.65c0,16.4-13.34,29.74-29.74,29.74Z"/>
  </g>
  <g>
    <path class="cls-2" d="M242.82,1201.31c4.48,1.49,7.99,5.01,9.49,9.49l11.15,33.45,36.06-90.15-90.15,36.06,33.45,11.15Z"/>
    <path class="cls-2" d="M375.55,943.48c-16.66,0-30.17,13.51-30.17,30.17,0,23.23-18.89,42.1-42.1,42.1h-114.33c-23.21,0-42.1-18.89-42.1-42.1,0-16.66-13.51-30.17-30.17-30.17s-30.17,13.51-30.17,30.17v451.67c0,16.66,13.51,30.17,30.17,30.17h258.87c16.66,0,30.17-13.51,30.17-30.17v-451.67c0-16.66-13.51-30.17-30.17-30.17ZM310.38,1391.21h-128.53c-8.28,0-15-6.72-15-15s6.72-15,15-15h128.53c8.28,0,15,6.72,15,15s-6.72,15-15,15ZM340.37,1132.75l-64.27,160.67c-2.28,5.71-7.81,9.43-13.92,9.43-.15,0-.29,0-.44,0-6.29-.18-11.8-4.28-13.79-10.25l-21.73-65.18-65.18-21.73c-5.97-1.99-10.07-7.5-10.25-13.79s3.58-12.03,9.42-14.37l160.67-64.27c5.57-2.23,11.93-.92,16.18,3.32,4.24,4.24,5.55,10.61,3.32,16.18h0Z"/>
    <path class="cls-2" d="M188.95,985.74h114.33c6.67,0,12.1-5.43,12.1-12.1,0-10.77,2.81-21.1,8.07-30.17h-154.68c5.27,9.06,8.07,19.39,8.07,30.15,0,6.69,5.43,12.12,12.1,12.12Z"/>
    <path class="cls-2" d="M471.05,999.71c-8.28,0-15,6.72-15,15s6.72,15,15,15c22.74,0,41.23,18.5,41.23,41.23,0,8.28,6.72,15,15,15s15-6.72,15-15c0-39.28-31.95-71.23-71.23-71.23Z"/>
    <path class="cls-2" d="M471.05,943.47c-8.28,0-15,6.72-15,15s6.72,15,15,15c53.74,0,97.47,43.72,97.47,97.47,0,8.28,6.72,15,15,15s15-6.72,15-15c0-70.29-57.18-127.47-127.47-127.47Z"/>
    <circle class="cls-2" cx="471.05" cy="1070.94" r="15"/>
  </g>
  <g>
    <path class="cls-2" d="M86.85,530.72c-16.53,33.06,8.26,72.72,46.28,72.72h216.52c38.01,0,62.81-39.67,46.28-72.72-28.1-57.85-85.95-97.52-153.71-97.52s-128.92,39.67-155.36,97.52h0Z"/>
    <path class="cls-2" d="M240.56,243.13c-42.97,0-79.33,34.71-79.33,79.33s34.71,79.33,79.33,79.33,79.33-34.71,79.33-79.33-34.71-79.33-79.33-79.33Z"/>
    <path class="cls-2" d="M471.96,378.66c6.61-6.61,3.31-16.53-4.96-18.18l-26.44-3.31c-3.31,0-6.61-3.31-8.26-4.96l-11.57-24.79c-3.31-8.26-14.88-8.26-18.18,0l-11.57,24.79c-1.65,3.31-4.96,4.96-8.26,4.96l-26.44,3.31c-8.26,1.65-11.57,11.57-4.96,18.18l19.83,18.18c1.65,1.65,3.31,6.61,3.31,9.92l-4.96,26.44c-1.65,8.26,8.26,14.88,14.88,11.57l24.79-13.22c3.31-1.65,6.61-1.65,9.92,0l24.79,13.22c8.26,3.31,16.53-1.65,14.88-11.57l-4.96-26.44c0-3.31,0-6.61,3.31-9.92l14.88-18.18Z"/>
  </g>
  <g>
    <path class="cls-2" d="M703.09,484.15l-14.49,51.16c-3.59,12.49-1.06,25.65,6.78,36.15,7.84,10.37,19.8,16.35,32.96,16.35h158.67l1.73-30.57-21.13-25.91c-8.51-10.5-11.03-24.59-6.91-37.48,4.25-12.89,14.62-22.72,27.64-26.18l32.29-8.64,18.21-28.04c5.71-8.9,14.75-15.02,24.85-17.28,8.64-15.28,13.29-32.82,13.29-50.9,0-57.41-46.64-104.05-103.92-104.05s-103.92,46.64-103.92,104.05c0,18.34,4.78,36.15,13.69,51.69-37.34,5.45-69.24,32.56-79.73,69.63Z"/>
    <path class="cls-2" d="M1050.13,494c-1.4-4.28-4.85-7.57-9.2-8.73l-42.14-11.28-23.75-36.6c-4.91-7.53-17.39-7.53-22.3,0l-23.75,36.6-42.13,11.28c-4.35,1.17-7.81,4.45-9.2,8.73-1.39,4.27-.52,8.97,2.31,12.46l27.45,33.9-2.29,43.57c-.24,4.5,1.82,8.81,5.46,11.45,3.64,2.65,8.38,3.3,12.58,1.66l40.72-15.64,40.72,15.64c1.54.6,3.15.88,4.76.88,2.76,0,5.51-.87,7.81-2.54,3.64-2.63,5.7-6.94,5.46-11.45l-2.29-43.57,27.45-33.88c2.84-3.5,3.71-8.2,2.32-12.47Z"/>
  </g>
  <g id="Layer_2" data-name="Layer 2">
    <g id="stroke_copy_4" data-name="stroke copy 4">
      <g id="_117" data-name=" 117">
        <path class="cls-2" d="M1560.64,586.15c-13.8,0-25-11.1-25-24.9v-.1c.6-67.1-53.3-121.9-120.3-122.5s-122,53.3-122.6,120.3v2.2c0,13.8-11.2,25-25,25s-25-11.2-25-25c-.1-94.6,76.9-171.5,171.4-171.5s171.5,76.9,171.5,171.5c0,13.8-11.2,25-25,25h0Z"/>
        <path class="cls-2" d="M1414.14,362.35c-47.9,0-86.7-38.8-86.7-86.7s38.8-86.7,86.7-86.7,86.7,38.8,86.7,86.7-38.8,86.6-86.7,86.7h0ZM1414.14,239.05c-20.2,0-36.6,16.4-36.6,36.6s16.4,36.6,36.6,36.6,36.6-16.4,36.6-36.6-16.3-36.6-36.6-36.6Z"/>
      </g>
    </g>
  </g>
  <g>
    <circle class="cls-2" cx="2009.57" cy="260.3" r="77.39"/>
    <circle class="cls-2" cx="2166.14" cy="288.76" r="48.93"/>
    <circle class="cls-2" cx="1853.01" cy="288.76" r="48.93"/>
    <path class="cls-2" d="M1901.21,381.62c-19.26-15.78-36.7-13.69-58.97-13.69-33.31,0-60.4,26.94-60.4,60.04v97.15c0,14.38,11.73,26.06,26.16,26.06,62.29,0,54.79,1.13,54.79-2.69,0-68.84-8.15-119.32,38.42-166.87Z"/>
    <path class="cls-2" d="M2030.75,368.29c-38.9-3.24-72.7.04-101.86,24.11-48.8,39.09-39.41,91.72-39.41,156.1,0,17.03,13.86,31.15,31.15,31.15,187.77,0,195.25,6.06,206.38-18.6,3.65-8.34,2.65-5.69,2.65-85.46,0-63.36-54.86-107.3-98.91-107.3h0Z"/>
    <path class="cls-2" d="M2176.9,367.93c-22.39,0-39.74-2.07-58.97,13.69,46.23,47.2,38.42,94.24,38.42,166.87,0,3.84-6.23,2.69,53.85,2.69,14.94,0,27.1-12.11,27.1-26.99v-96.22c0-33.1-27.1-60.04-60.4-60.04Z"/>
  </g>
</svg>