<?xml version="1.0" encoding="UTF-8"?>
<svg id="Capa_1" data-name="Capa 1" xmlns="http://www.w3.org/2000/svg" viewBox="0 0 524.98 475.13">
  <defs>
    <style>
      .cls-1 {
        fill: #fff;
      }
    </style>
  </defs>
  <path class="cls-1" d="M255.71,209.14l18.41-28.03c2.98-6.28,2.6-13.25-1.06-19.21-3.73-6.06-10.21-9.68-17.35-9.68s-13.63,3.62-17.35,9.68c-3.67,5.96-4.04,12.93-1.06,19.21l18.42,28.03Z"/>
  <path class="cls-1" d="M194.48,265.85c0,4.62,3.76,8.38,8.38,8.38h105.7c4.62,0,8.38-3.76,8.38-8.38V95.89h-122.46v169.97ZM220.16,150.7c7.65-12.43,20.93-19.85,35.55-19.85s27.9,7.42,35.55,19.85c7.62,12.39,8.25,27.54,1.69,40.53-.18.36-.38.71-.61,1.05l-27.71,42.18c-1.97,3.01-5.33,4.81-8.93,4.81s-6.95-1.81-8.92-4.81l-27.71-42.18c-.22-.34-.42-.69-.61-1.05-6.56-12.98-5.93-28.14,1.69-40.53Z"/>
  <path class="cls-1" d="M330.4,41.6h-149.38c-22.34,0-40.51,18.17-40.51,40.51v283.49c0,22.34,18.17,40.51,40.51,40.51h149.38c22.34,0,40.52-18.17,40.52-40.51V82.12c0-22.34-18.17-40.51-40.51-40.51ZM231.87,339.3c0-5.9,4.78-10.68,10.68-10.68h26.31c5.9,0,10.68,4.78,10.68,10.68s-4.78,10.68-10.68,10.68h-26.31c-5.9,0-10.68-4.78-10.68-10.68ZM308.56,295.59h-105.7c-16.4,0-29.74-13.34-29.74-29.74V85.21c0-5.9,4.78-10.68,10.68-10.68h143.82c5.9,0,10.68,4.78,10.68,10.68v180.65c0,16.4-13.34,29.74-29.74,29.74Z"/>
</svg>