<?xml version="1.0" encoding="UTF-8"?>
<svg id="Capa_1" data-name="Capa 1" xmlns="http://www.w3.org/2000/svg" viewBox="0 0 524.98 475.13">
  <defs>
    <style>
      .cls-1 {
        fill: #fff;
      }
    </style>
  </defs>
  <g id="Layer_2" data-name="Layer 2">
    <g id="stroke_copy_4" data-name="stroke copy 4">
      <g id="_117" data-name=" 117">
        <path class="cls-1" d="M401.18,428.58c-13.8,0-25-11.1-25-24.9v-.1c.6-67.1-53.3-121.9-120.3-122.5s-122,53.3-122.6,120.3v2.2c0,13.8-11.2,25-25,25s-25-11.2-25-25c-.1-94.6,76.9-171.5,171.4-171.5s171.5,76.9,171.5,171.5c0,13.8-11.2,25-25,25h0Z"/>
        <path class="cls-1" d="M254.68,204.78c-47.9,0-86.7-38.8-86.7-86.7S206.78,31.38,254.68,31.38s86.7,38.8,86.7,86.7-38.8,86.6-86.7,86.7h0ZM254.68,81.48c-20.2,0-36.6,16.4-36.6,36.6s16.4,36.6,36.6,36.6,36.6-16.4,36.6-36.6-16.3-36.6-36.6-36.6Z"/>
      </g>
    </g>
  </g>
</svg>