<?xml version="1.0" encoding="UTF-8"?>
<svg id="Capa_1" data-name="Capa 1" xmlns="http://www.w3.org/2000/svg" viewBox="0 0 93.11 95.87">
  <defs>
    <style>
      .cls-1 {
        fill: #fff;
      }
    </style>
  </defs>
  <path class="cls-1" d="M39.11,24.49c9.21-2.48,9.24-12.52,26.48-10.34-4.75-5.8-11.97-9.5-20.06-9.5-10.11,0-18.87,5.79-23.14,14.24,2.12,2.32,8.97,7.69,16.72,5.6"/>
  <path class="cls-1" d="M24.29,45.43c4.69,6.69,12.45,11.06,21.24,11.06,9.22,0,17.31-4.81,21.91-12.05-17-5.65-17.9,12.53-43.14.99"/>
  <path class="cls-1" d="M52.04,38.85c6.05-1.3,12.04-.84,17.8.74,1.04-2.81,1.61-5.84,1.61-9.01,0-3.16-.56-6.19-1.6-8.99-2.25,13.01-29.63,16.54-49.38,2.31-.57,2.13-.87,4.36-.87,6.67,0,3.11.55,6.1,1.55,8.87.32.15,7.11,4.53,30.88-.58"/>
  <path class="cls-1" d="M65.87,14.74c-13.34-1.69-16.38,3.94-21.33,7.72,24.78,1.91,21.33-7.72,21.33-7.72"/>
  <path class="cls-1" d="M69.26,21.75s0-.01,0-.02c-.09-1.84-4.18-3.71-17.17,7.01-3.06,2.52-6.66,3.44-10.33,3.4,13.8,1.81,26.02-2.38,27.51-10.4"/>
  <polygon class="cls-1" points="20.48 23.9 20.47 23.9 20.48 23.9 20.48 23.9"/>
  <path class="cls-1" d="M52.57,44.99c-3.7-1.23-7.2-2.98-13.38-2.98-8.36,0-14.95,1.22-14.96,2.95,15.51,7.09,21.83,2.96,28.34.03"/>
  <polyline class="cls-1" points="24.29 45.43 24.29 45.43 24.3 45.44 24.29 45.43"/>
  <path class="cls-1" d="M29.15,71.25c-.18.44-.46.82-.84,1.13-.39.31-.88.55-1.5.72-.61.17-1.35.26-2.22.26h-4.6v-13.25h4.49c.86,0,1.58.08,2.16.24.58.16,1.05.38,1.4.67.35.29.61.63.76,1.03.15.4.23.84.23,1.32s-.06.89-.18,1.24c-.12.35-.29.64-.5.88-.22.24-.47.44-.77.59-.3.15-.62.28-.97.38v.11c.37.08.72.18,1.06.32.34.14.64.33.9.58.26.25.47.56.63.94.16.38.24.84.24,1.38s-.09,1.04-.26,1.48M26.68,62.41c-.22-.25-.49-.44-.81-.55-.32-.11-.66-.18-1.02-.2-.36-.02-.67-.03-.94-.03h-1.97v4.16h1.93c.37,0,.74-.03,1.11-.09.37-.06.71-.18,1.01-.34.3-.16.55-.39.74-.69.19-.3.28-.68.28-1.16s-.11-.85-.33-1.1M27.1,68.48c-.18-.29-.43-.52-.75-.69-.31-.17-.67-.29-1.08-.36s-.83-.1-1.27-.1h-2.06v4.49h2.18c.45,0,.88-.03,1.28-.09.4-.06.74-.16,1.04-.32.3-.16.53-.38.69-.67.16-.29.25-.67.25-1.14s-.09-.83-.27-1.12"/>
  <path class="cls-1" d="M37.55,73.52c-.69.03-1.37.04-2.05.04-.64,0-1.23-.04-1.77-.13-.54-.09-1-.25-1.38-.49-.39-.24-.69-.57-.9-.99-.21-.42-.32-.97-.32-1.64,0-.77.17-1.37.52-1.79.35-.42.78-.73,1.31-.93.52-.19,1.1-.31,1.71-.34.61-.03,1.18-.05,1.7-.05.22,0,.46,0,.72.03.27.02.56.03.89.03,0-.53-.02-.96-.06-1.3-.04-.33-.15-.6-.33-.79-.18-.2-.47-.33-.85-.41-.39-.08-.92-.11-1.62-.11-.53,0-1.08.04-1.65.12-.57.08-1.12.17-1.65.27v-1.48c1.19-.24,2.35-.36,3.5-.36.69,0,1.32.04,1.87.1.55.07,1.03.22,1.42.45.39.23.7.56.91.99.21.44.32,1.02.32,1.75v6.83c-.85.1-1.61.16-2.3.19M37.99,68.65c-.41-.01-.75-.02-1.04-.04-.29-.01-.51-.02-.65-.02-.49,0-.94.02-1.34.07-.4.04-.74.13-1.02.26-.28.13-.49.31-.64.54-.15.23-.22.52-.22.89,0,.42.09.75.26.99.17.25.4.43.68.55.29.12.61.2.98.24.37.04.74.06,1.12.06.25,0,.51,0,.76-.03.25-.02.62-.04,1.1-.07v-3.44Z"/>
  <path class="cls-1" d="M49.57,73.35v-6.36c0-.27,0-.53-.03-.8-.02-.27-.08-.5-.19-.71-.11-.21-.28-.38-.51-.51-.23-.13-.56-.2-1-.2-.24,0-.5.03-.79.09-.29.06-.58.14-.87.23-.29.09-.57.19-.84.29-.27.11-.51.21-.73.29v7.67h-1.87v-9.97h1.74v.91c.49-.21.91-.39,1.27-.53.35-.14.67-.26.97-.34.29-.08.57-.14.85-.17.28-.03.59-.05.93-.05s.71.05,1.07.16c.36.11.68.28.97.53.28.25.51.56.69.95.18.38.27.85.27,1.39v7.12h-1.91Z"/>
  <path class="cls-1" d="M60.52,73.51c-.42.03-.83.05-1.23.05-.81,0-1.55-.11-2.21-.33-.67-.22-1.24-.56-1.72-1-.48-.45-.85-1.01-1.12-1.69-.26-.67-.4-1.46-.4-2.36,0-.79.14-1.5.42-2.12.28-.62.66-1.14,1.14-1.56.48-.42,1.04-.74,1.69-.96.65-.22,1.35-.33,2.09-.33.26,0,.5,0,.72.01.21,0,.42.02.61.04.2.02.39.04.6.08.2.03.42.07.66.1v1.48c-.4-.06-.75-.11-1.04-.15-.29-.04-.59-.06-.91-.06-.57,0-1.09.06-1.57.19-.48.13-.9.33-1.26.61-.36.28-.64.64-.84,1.09-.2.45-.3.99-.3,1.64,0,1.3.36,2.27,1.07,2.91.71.64,1.69.95,2.92.94.28-.01.57-.03.89-.06.32-.03.69-.08,1.14-.15v1.46c-.48.1-.93.17-1.34.2"/>
  <path class="cls-1" d="M72.75,70.44c-.25.65-.59,1.21-1.04,1.68-.45.47-.98.83-1.59,1.09-.61.26-1.28.39-2.02.39-.79,0-1.5-.13-2.13-.39-.62-.26-1.15-.62-1.58-1.09-.43-.47-.76-1.02-.97-1.67-.22-.64-.33-1.36-.33-2.14s.11-1.51.34-2.15c.23-.64.55-1.18.97-1.62.42-.44.95-.78,1.57-1.02.62-.24,1.33-.36,2.13-.36s1.5.12,2.12.36c.62.24,1.14.58,1.57,1.02.43.44.76.98.99,1.62.23.64.34,1.35.34,2.15s-.12,1.48-.37,2.13M70.35,65.55c-.51-.66-1.26-.99-2.25-.99s-1.74.33-2.25.99c-.51.66-.76,1.58-.76,2.76s.25,2.14.76,2.83c.51.7,1.26,1.05,2.25,1.05s1.74-.35,2.25-1.05c.51-.7.76-1.64.76-2.83s-.25-2.1-.76-2.76"/>
  <polygon class="cls-1" points="6.28 79.8 6.28 84.19 11.28 84.19 11.28 85.8 6.28 85.8 6.28 91.44 4.27 91.44 4.27 78.19 12.7 78.19 12.7 79.8 6.28 79.8"/>
  <path class="cls-1" d="M14,77.24h1.89v1.84h-1.89v-1.84ZM14,81.5h1.89v9.94h-1.89v-9.94Z"/>
  <path class="cls-1" d="M25.68,91.44v-6.36c0-.26,0-.53-.03-.8-.02-.27-.08-.5-.19-.71-.11-.21-.28-.38-.51-.51-.23-.13-.57-.2-.99-.2-.24,0-.5.03-.79.09-.29.06-.58.14-.87.23-.29.09-.57.19-.84.29s-.52.21-.73.29v7.66h-1.88v-9.97h1.74v.91c.49-.21.92-.39,1.27-.53.35-.14.68-.26.97-.34.29-.08.57-.14.85-.17.28-.03.59-.05.93-.05s.71.05,1.07.16c.36.11.68.28.96.53.28.25.51.56.69.95.18.38.26.85.26,1.39v7.12h-1.91Z"/>
  <path class="cls-1" d="M36.1,91.61c-.69.03-1.37.04-2.05.04-.64,0-1.23-.04-1.77-.13-.54-.09-1-.25-1.38-.49-.39-.24-.68-.57-.9-.99-.22-.42-.32-.97-.32-1.64,0-.77.17-1.36.52-1.79.35-.42.78-.73,1.31-.93.52-.19,1.09-.31,1.71-.34.61-.03,1.18-.05,1.7-.05.22,0,.46,0,.72.03.27.02.56.03.89.03,0-.53-.02-.96-.06-1.3-.04-.33-.15-.6-.33-.79-.18-.2-.47-.33-.85-.41-.39-.08-.93-.11-1.62-.11-.53,0-1.08.04-1.65.12-.57.08-1.12.17-1.65.27v-1.48c1.19-.24,2.35-.36,3.5-.36.69,0,1.32.04,1.87.1.55.07,1.03.22,1.42.44.39.23.7.56.91.99.21.43.32,1.02.32,1.75v6.83c-.85.1-1.61.16-2.3.19M36.54,86.75c-.41-.01-.75-.03-1.05-.04-.29-.01-.51-.02-.64-.02-.49,0-.94.02-1.34.07-.4.04-.74.13-1.02.26-.28.13-.49.31-.64.54-.15.23-.22.52-.22.89,0,.42.09.75.26.99.17.25.4.43.68.55.29.12.61.2.98.24.37.04.74.06,1.12.06.25,0,.51,0,.76-.03.25-.02.62-.04,1.1-.07v-3.44Z"/>
  <path class="cls-1" d="M48.13,91.44v-6.36c0-.26-.01-.53-.03-.8-.02-.27-.08-.5-.19-.71-.11-.21-.28-.38-.51-.51-.23-.13-.56-.2-.99-.2-.24,0-.51.03-.79.09-.29.06-.58.14-.87.23-.29.09-.57.19-.84.29-.27.11-.52.21-.73.29v7.66h-1.87v-9.97h1.74v.91c.49-.21.92-.39,1.27-.53.35-.14.67-.26.96-.34.29-.08.57-.14.85-.17.28-.03.59-.05.93-.05s.71.05,1.07.16c.36.11.68.28.97.53.28.25.51.56.69.95.18.38.27.85.27,1.39v7.12h-1.91Z"/>
  <path class="cls-1" d="M61.49,79.42v11.89c-.25.04-.53.08-.83.12-.3.04-.61.08-.93.11-.32.03-.63.06-.96.08-.32.02-.62.03-.9.03-.78,0-1.51-.11-2.18-.33-.67-.22-1.25-.55-1.74-.97-.49-.43-.88-.96-1.16-1.6-.28-.64-.42-1.37-.42-2.21s.11-1.52.33-2.18c.22-.66.54-1.22.97-1.68.43-.46.96-.82,1.58-1.08.63-.26,1.35-.39,2.17-.39.2,0,.48,0,.82,0,.35,0,.79.05,1.34.12v-4.11h1.89v2.18ZM59.6,82.85c-.41-.06-.74-.11-1.02-.13-.27-.03-.52-.04-.73-.04-1.13,0-1.99.31-2.57.93-.59.62-.88,1.58-.88,2.88,0,.56.08,1.06.24,1.51.16.45.39.85.68,1.17.3.33.67.58,1.11.77.44.18.95.27,1.52.27.18,0,.4,0,.66-.02.26-.01.59-.04,1-.08v-7.27Z"/>
  <path class="cls-1" d="M64.44,77.24h1.89v1.84h-1.89v-1.84ZM64.44,81.5h1.89v9.94h-1.89v-9.94Z"/>
  <path class="cls-1" d="M76.12,91.44v-6.36c0-.26,0-.53-.03-.8s-.08-.5-.19-.71c-.11-.21-.28-.38-.51-.51-.24-.13-.56-.2-1-.2-.24,0-.5.03-.79.09-.29.06-.58.14-.87.23-.29.09-.57.19-.84.29-.27.11-.51.21-.73.29v7.66h-1.87v-9.97h1.74v.91c.49-.21.91-.39,1.27-.53.35-.14.67-.26.97-.34.29-.08.57-.14.85-.17.28-.03.59-.05.93-.05s.71.05,1.07.16c.36.11.68.28.97.53.28.25.51.56.69.95.18.38.27.85.27,1.39v7.12h-1.91Z"/>
  <path class="cls-1" d="M86.54,91.61c-.69.03-1.37.04-2.05.04-.64,0-1.23-.04-1.77-.13-.54-.09-1-.25-1.38-.49-.38-.24-.68-.57-.9-.99-.21-.42-.32-.97-.32-1.64,0-.77.17-1.36.52-1.79.35-.42.78-.73,1.31-.93.52-.19,1.09-.31,1.71-.34.61-.03,1.18-.05,1.7-.05.21,0,.45,0,.72.03.26.02.56.03.89.03,0-.53-.02-.96-.06-1.3-.04-.33-.15-.6-.33-.79-.18-.2-.47-.33-.85-.41-.39-.08-.92-.11-1.62-.11-.53,0-1.08.04-1.65.12-.57.08-1.12.17-1.65.27v-1.48c1.19-.24,2.35-.36,3.5-.36.69,0,1.32.04,1.87.1.55.07,1.03.22,1.42.44.39.23.7.56.91.99.21.43.32,1.02.32,1.75v6.83c-.84.1-1.61.16-2.3.19M86.99,86.75c-.41-.01-.75-.03-1.05-.04-.29-.01-.51-.02-.65-.02-.49,0-.94.02-1.34.07-.4.04-.74.13-1.02.26-.28.13-.49.31-.64.54-.15.23-.22.52-.22.89,0,.42.09.75.26.99.17.25.4.43.68.55.29.12.61.2.98.24.37.04.74.06,1.12.06.25,0,.51,0,.76-.03.25-.02.62-.04,1.1-.07v-3.44Z"/>
</svg>