<?xml version="1.0" encoding="UTF-8"?>
<svg id="Capa_1" data-name="Capa 1" xmlns="http://www.w3.org/2000/svg" viewBox="0 0 213.4 64.84">
  <defs>
    <style>
      .cls-1 {
        fill: #fff;
      }
    </style>
  </defs>
  <path class="cls-1" d="M11.61,20.68h17.65v4.96h-10.48v4.03h8.95v4.67h-8.95v9.44h-7.17v-23.1Z"/>
  <path class="cls-1" d="M32.92,20.68h6.41v4.37h-6.41v-4.37ZM32.92,27.05h6.41v16.74h-6.41v-16.74Z"/>
  <path class="cls-1" d="M43.43,27.05h5.97v2.73c.89-1.11,1.8-1.91,2.71-2.39.91-.48,2.03-.72,3.34-.72,1.78,0,3.17.53,4.17,1.58,1,1.06,1.51,2.69,1.51,4.89v10.64h-6.45v-9.2c0-1.05-.19-1.79-.58-2.23-.39-.44-.94-.65-1.64-.65-.78,0-1.41.29-1.89.88-.48.59-.72,1.64-.72,3.17v8.04h-6.41v-16.74Z"/>
  <path class="cls-1" d="M70.81,32.47l-6.13-.65c.23-1.07.56-1.91,1-2.53.44-.61,1.06-1.15,1.88-1.6.59-.33,1.4-.58,2.43-.76,1.03-.18,2.14-.27,3.34-.27,1.92,0,3.47.11,4.63.32,1.17.22,2.14.66,2.92,1.35.55.47.98,1.14,1.29,2.01.32.87.47,1.69.47,2.48v7.39c0,.79.05,1.41.15,1.85.1.45.32,1.02.65,1.71h-6.02c-.24-.43-.4-.76-.47-.99-.07-.23-.15-.58-.22-1.06-.84.81-1.68,1.39-2.51,1.73-1.13.46-2.45.69-3.96.69-2,0-3.51-.46-4.55-1.39-1.04-.92-1.55-2.06-1.55-3.42,0-1.27.37-2.32,1.12-3.14.75-.82,2.12-1.43,4.13-1.83,2.41-.48,3.97-.82,4.68-1.02.71-.19,1.47-.45,2.27-.76,0-.79-.16-1.34-.49-1.65-.33-.32-.9-.47-1.72-.47-1.05,0-1.84.17-2.36.5-.41.26-.74.76-.99,1.48ZM76.37,35.84c-.88.32-1.8.59-2.76.84-1.3.35-2.13.69-2.47,1.02-.36.35-.54.74-.54,1.18,0,.5.18.92.53,1.24.35.32.87.48,1.55.48s1.38-.17,1.99-.52c.61-.35,1.05-.77,1.31-1.27.26-.5.39-1.15.39-1.95v-1.02Z"/>
  <path class="cls-1" d="M86.49,27.05h5.97v2.73c.89-1.11,1.8-1.91,2.71-2.39.91-.48,2.03-.72,3.34-.72,1.78,0,3.17.53,4.17,1.58,1,1.06,1.51,2.69,1.51,4.89v10.64h-6.45v-9.2c0-1.05-.19-1.79-.58-2.23-.39-.44-.94-.65-1.64-.65-.78,0-1.41.29-1.89.88-.48.59-.72,1.64-.72,3.17v8.04h-6.41v-16.74Z"/>
  <path class="cls-1" d="M107.29,27.05h15.52v3.75l-8.45,8.61h8.97v4.38h-16.67v-4.16l8.02-8.2h-7.39v-4.38Z"/>
  <path class="cls-1" d="M131.82,32.47l-6.13-.65c.23-1.07.56-1.91,1-2.53s1.06-1.15,1.88-1.6c.59-.33,1.4-.58,2.43-.76,1.03-.18,2.14-.27,3.34-.27,1.92,0,3.47.11,4.63.32,1.17.22,2.14.66,2.92,1.35.55.47.98,1.14,1.29,2.01.32.87.47,1.69.47,2.48v7.39c0,.79.05,1.41.15,1.85.1.45.32,1.02.65,1.71h-6.02c-.24-.43-.4-.76-.47-.99-.07-.23-.15-.58-.22-1.06-.84.81-1.68,1.39-2.51,1.73-1.13.46-2.45.69-3.96.69-2,0-3.51-.46-4.55-1.39-1.04-.92-1.55-2.06-1.55-3.42,0-1.27.37-2.32,1.12-3.14.75-.82,2.12-1.43,4.13-1.83,2.41-.48,3.97-.82,4.68-1.02.71-.19,1.47-.45,2.27-.76,0-.79-.16-1.34-.49-1.65-.33-.32-.9-.47-1.72-.47-1.05,0-1.84.17-2.36.5-.41.26-.74.76-.99,1.48ZM137.38,35.84c-.88.32-1.8.59-2.76.84-1.3.35-2.13.69-2.47,1.02-.36.35-.54.74-.54,1.18,0,.5.18.92.53,1.24.35.32.87.48,1.55.48s1.38-.17,1.99-.52c.61-.35,1.05-.77,1.31-1.27.26-.5.39-1.15.39-1.95v-1.02Z"/>
  <path class="cls-1" d="M165.13,43.79h-5.99v-2.71c-.89,1.11-1.79,1.91-2.7,2.38-.91.47-2.03.71-3.35.71-1.77,0-3.15-.53-4.15-1.58-1-1.06-1.51-2.68-1.51-4.88v-10.65h6.45v9.2c0,1.05.19,1.8.58,2.24.39.44.93.66,1.64.66.77,0,1.39-.29,1.88-.88.49-.59.73-1.64.73-3.17v-8.05h6.41v16.74Z"/>
  <path class="cls-1" d="M176.76,20.68v6.37h3.53v4.7h-3.53v5.93c0,.71.07,1.19.2,1.42.21.36.58.53,1.1.53.47,0,1.13-.14,1.99-.41l.47,4.43c-1.59.35-3.07.52-4.44.52-1.6,0-2.77-.2-3.53-.61-.76-.41-1.32-1.03-1.68-1.87-.36-.83-.54-2.19-.54-4.05v-5.89h-2.36v-4.7h2.36v-3.07l6.43-3.29Z"/>
  <path class="cls-1" d="M201.69,36.85c0-.05.01-.1.02-.15.01-.1.02-.19.03-.29,0-.09.02-.19.02-.29,0-.07.01-.14.01-.21,0-.18.01-.35.01-.53s0-.35-.01-.53c0-.1-.01-.21-.02-.31,0-.06,0-.13-.01-.19-.02-.16-.03-.31-.06-.46,0,0,0,0,0,0-.13-.92-.4-1.77-.79-2.56-.31-.62-.7-1.2-1.17-1.74-1.07-1.22-2.47-2.05-4.18-2.51-.16-.04-.33-.08-.49-.11-.02,0-.04,0-.06-.01-.12-.03-.24-.05-.36-.07-.22-.04-.45-.07-.68-.1-.02,0-.04,0-.06,0-.54-.06-1.1-.1-1.68-.1-.01,0-.03,0-.04,0-.01,0-.03,0-.04,0-1.17,0-2.25.14-3.23.4-.02,0-.04,0-.05.01,0,0,0,0,0,0-1.45.4-2.68,1.09-3.7,2.07-.64.61-1.16,1.28-1.56,2.02,0,0-.02,0-.03.01-.45.85-.75,1.79-.9,2.81,0,.05-.01.1-.02.15-.01.1-.02.19-.03.29,0,.09-.02.19-.02.29,0,.07-.01.14-.01.21,0,.18-.01.35-.01.53s0,.35.01.53c0,.1.01.21.02.31,0,.06,0,.13.01.19.02.15.03.31.06.46,0,0,0,0,0,0,.13.92.4,1.77.79,2.56.31.62.7,1.2,1.17,1.74,1.07,1.22,2.47,2.05,4.18,2.51.16.04.33.08.49.11.02,0,.04,0,.06.01.12.03.24.05.36.07.22.04.45.07.68.1.02,0,.04,0,.06,0,.54.06,1.1.1,1.68.1.01,0,.03,0,.04,0,.01,0,.03,0,.04,0,1.17,0,2.25-.14,3.23-.4.02,0,.04,0,.05-.01,0,0,0,0,0,0,1.45-.4,2.68-1.09,3.7-2.07.64-.61,1.16-1.29,1.56-2.02,0,0,.02,0,.03-.01.45-.85.75-1.79.9-2.81ZM189.24,38.87c-.12-.12-.24-.25-.34-.39-.56-.73-.85-1.74-.85-3.03,0-1.39.29-2.46.85-3.2,0,0,0-.01-.01-.02.08-.09.15-.17.24-.25.33-.31.7-.56,1.1-.74.58-.26,1.23-.4,1.96-.4,1.17,0,2.14.37,2.94,1.12.12.12.24.25.34.39.56.73.85,1.74.85,3.03,0,1.39-.29,2.46-.85,3.2,0,0,0,.01.01.02-.08.09-.15.17-.24.25-.33.31-.7.56-1.1.74-.58.26-1.23.4-1.96.4-1.17,0-2.14-.37-2.94-1.12Z"/>
</svg>