<?xml version="1.0" encoding="UTF-8"?>
<svg id="Capa_1" data-name="Capa 1" xmlns="http://www.w3.org/2000/svg" viewBox="0 0 186.34 64.84">
  <defs>
    <style>
      .cls-1 {
        font-family: Kodchasan-SemiBold, Kodchasan;
        font-size: 5.23px;
        font-weight: 600;
      }

      .cls-1, .cls-2 {
        fill: #fff;
      }

      .cls-3 {
        letter-spacing: 0em;
      }

      .cls-4 {
        letter-spacing: -.03em;
      }

      .cls-5 {
        letter-spacing: -.05em;
      }
    </style>
  </defs>
  <g>
    <path class="cls-2" d="M33.62,24.28c0,.79-.58,1.41-1.33,1.42-.78.01-1.38-.6-1.39-1.41,0-.8.6-1.46,1.36-1.46.77,0,1.36.63,1.37,1.44Z"/>
    <path class="cls-2" d="M24.28,25.7c-.77,0-1.38-.62-1.38-1.42,0-.81.6-1.45,1.36-1.45.76,0,1.37.65,1.36,1.45,0,.77-.61,1.42-1.34,1.42Z"/>
    <path class="cls-2" d="M41.28,21.39c-.57-4.1-2.47-7.35-5.7-9.68-2.8-2.02-5.93-2.73-9.29-2.21-2.01.31-3.85,1.09-5.51,2.31-2.4,1.77-4.08,4.13-5,7.07-.71,2.29-.92,4.62-.29,6.99.6,2.26,1.48,4.41,2.49,6.5,2.89,5.98,6.39,11.56,10.13,16.98h.3c.09-.13.19-.27.28-.4,2.79-4.04,5.41-8.2,7.78-12.53,1.69-3.1,3.26-6.26,4.32-9.68.54-1.75.75-3.52.49-5.34ZM36.75,21.49c-.08.36-.16.73-.23,1.09-.07.37-.21.49-.57.49-.12,0-.24,0-.39,0,.08.12.15.21.21.31.79,1.25.65,2.88-.33,3.96-.05.05-.08.15-.08.23,0,.5,0,1.01,0,1.51,0,.48-.26.76-.72.76-.46,0-.93,0-1.39,0-.45,0-.71-.27-.71-.75,0-.2,0-.41,0-.63h-8.55c0,.19,0,.38,0,.57,0,.56-.24.81-.77.81-.45,0-.9,0-1.34,0-.45,0-.71-.28-.71-.75,0-.52,0-1.04,0-1.56,0-.07-.03-.16-.08-.21-1.03-1.05-1.13-2.93-.22-4.13.02-.03.04-.06.07-.11-.16,0-.29,0-.43,0-.27,0-.43-.13-.48-.41-.09-.4-.17-.81-.24-1.22-.05-.3.15-.55.46-.55.49,0,.97,0,1.46,0,.13,0,.18-.04.23-.16.25-.67.52-1.32.92-1.91.28-.41.65-.69,1.08-.9.81-.38,1.66-.56,2.53-.68,1.09-.14,2.18-.15,3.28-.04.92.1,1.82.28,2.69.63.72.29,1.24.8,1.58,1.51.22.46.41.93.61,1.4.04.11.09.15.21.15.46,0,.92,0,1.38,0,.27,0,.46.09.57.35v.25Z"/>
  </g>
  <g>
    <path class="cls-2" d="M62.98,42.76c-8.45,0-12.65-5.58-12.65-14.14s4.45-14.18,13.13-14.18c3.35,0,6.06.81,8.12,2.51,1.94,1.74,3.03,4.12,3.31,7.11h-3.39c-1.21,0-2.1-.57-2.63-1.66-.93-1.98-2.75-2.99-5.41-2.99-5.21,0-7.52,3.68-7.52,9.21s2.22,9.17,7.35,9.17c3.52,0,5.54-1.94,6.14-4.97h5.45c-.52,6.34-4.97,9.94-11.92,9.94Z"/>
    <path class="cls-2" d="M83.14,26.55h-5.37c.65-3.96,3.43-5.9,8.36-5.9,5.9,0,8.89,1.94,9.01,5.9v7.27c0,5.9-3.56,8.53-9.33,8.93-5.13.4-8.69-1.98-8.69-6.71.12-5.13,3.84-6.51,9.25-7.03,2.3-.28,3.48-.97,3.48-2.14-.12-1.21-1.25-1.82-3.48-1.82-1.9,0-2.95.48-3.23,1.5ZM89.93,33.58v-1.98c-1.25.53-2.71.97-4.28,1.29-2.14.4-3.23,1.41-3.23,2.99.12,1.7,1.01,2.51,2.71,2.51,2.99,0,4.81-1.78,4.81-4.81Z"/>
    <path class="cls-2" d="M97.73,31.32c.16-6.91,3.84-10.34,10.99-10.34h.77v5.58h-1.82c-2.99,0-4.49,1.58-4.49,4.69v11.11h-5.45v-11.03Z"/>
  </g>
  <path class="cls-2" d="M118.09,26.27h-.73v16.08h-5.37v-21.94c-.2-4.08,2.18-5.7,6.18-5.7.93,0,1.78.04,2.59.16v4.44h-1.41c-1.25,0-1.94.53-2.06,1.58v1.41h3.48v1.25c0,1.45-1.21,2.71-2.67,2.71Z"/>
  <path class="cls-2" d="M126.21,14.88c1.78,0,2.63.89,2.59,2.63v1.58h-5.37v-4.2h2.79ZM126.21,20.98c1.74,0,2.59.85,2.59,2.59v18.79h-5.37v-21.38h2.79Z"/>
  <path class="cls-2" d="M137.36,26.55h-5.37c.65-3.96,3.43-5.9,8.36-5.9,5.9,0,8.89,1.94,9.01,5.9v7.27c0,5.9-3.56,8.53-9.33,8.93-5.13.4-8.69-1.98-8.69-6.71.12-5.13,3.84-6.51,9.25-7.03,2.3-.28,3.48-.97,3.48-2.14-.12-1.21-1.25-1.82-3.48-1.82-1.9,0-2.95.48-3.23,1.5ZM144.15,33.58v-1.98c-1.25.53-2.71.97-4.28,1.29-2.14.4-3.23,1.41-3.23,2.99.12,1.7,1.01,2.51,2.71,2.51,2.99,0,4.81-1.78,4.81-4.81Z"/>
  <path class="cls-2" d="M171.22,31.77c0,7.35-3.27,11.07-9.74,11.07s-9.7-3.72-9.7-11.07,3.23-11.11,9.7-11.11,9.74,3.68,9.74,11.11ZM157.24,31.77c.04,4.16,1.45,6.26,4.2,6.26s4.12-2.18,4.16-6.43c0-4.16-1.37-6.22-4.12-6.22s-4.24,2.14-4.24,6.38Z"/>
  <text class="cls-1" transform="translate(50.33 51.7)"><tspan class="cls-5" x="0" y="0">L</tspan><tspan x="3.09" y="0">a tienda de los </tspan><tspan class="cls-4" x="42.85" y="0">c</tspan><tspan x="45.84" y="0">ar</tspan><tspan class="cls-5" x="51.17" y="0">r</tspan><tspan x="53.22" y="0">os financiados pa</tspan><tspan class="cls-5" x="98.86" y="0">r</tspan><tspan class="cls-3" x="100.91" y="0">a </tspan><tspan class="cls-4" x="105.35" y="0">t</tspan><tspan x="107.73" y="0">odos</tspan></text>
  <path class="cls-2" d="M38.33,51.45c.04,2.79-3.89,4.25-9.97,4.34-6.28.09-10.08-1.32-10.13-4.19-.02-1.11.54-2.01,1.74-2.71,1.22-.66,2.91-1.05,5.03-1.17l.02,1.12c0,.4-.39.7-1.16.89-1.4.33-2.11.94-2.09,1.82.03,1.72,2.65,2.45,6.57,2.39s6.5-.83,6.47-2.53c-.02-1.16-1.4-1.81-3.56-1.98l-.03-1.8c4.5.11,7.08,1.54,7.11,3.84Z"/>
</svg>