<?xml version="1.0" encoding="UTF-8"?>
<svg id="Capa_1" data-name="Capa 1" xmlns="http://www.w3.org/2000/svg" viewBox="0 0 170.22 64.84">
  <defs>
    <style>
      .cls-1 {
        fill: #fff;
      }
    </style>
  </defs>
  <polygon class="cls-1" points="35.67 16.77 18.08 16.77 13 39.81 31.14 39.81 32.35 34.24 22.86 33.88 24 30.92 31.74 30.98 33.25 25.3 25.03 25.24 25.7 22.7 34.1 22.82 35.67 16.77"/>
  <path class="cls-1" d="M58.04,23.66l-2.42,12.33s-1.27,3.99,4.41,4.47,6.05-2.96,6.05-2.96v2.54h7.44l3.33-16.38h-7.86l-2.24,10.76s-.42,1.81-2.06,1.51-.91-2.06-.91-2.06l1.87-10.22h-7.62Z"/>
  <polygon class="cls-1" points="79.08 23.66 87.12 23.66 83.55 40.11 75.69 40.11 79.08 23.66"/>
  <path class="cls-1" d="M89.58,23.66l-3.55,16.44h7.7l1.89-9.05s.36-1.61,2.42-1.61,3.06.44,3.06.44l1.49-6.23s-3.26-1.19-5.64,1.67l.46-1.64-7.83-.04Z"/>
  <path class="cls-1" d="M119.97,33.03s3.55-9.95-7.38-9.95-11.85,9.91-11.85,11.49.85,6.29,7.94,6.29,10.32-5.56,10.32-5.68-6.61-.16-6.61-.16c0,0-.44,1.65-2.54,1.65s-2.06-1.37-1.45-3.55l11.57-.08ZM111.74,27.15c2.54,0,1.97,2.62,1.97,2.62h-4.55s.04-2.62,2.58-2.62Z"/>
  <path class="cls-1" d="M123.83,23.72l-3.55,16.38h7.94l2.14-10.34s.32-1.89,1.89-1.89,1.09,2.3,1.09,2.3l-2.02,9.93h8.1l2.22-11.65s.89-5.04-4.8-5.04c-3.73,0-5.68,2.76-5.68,2.76l.39-2.47h-7.72Z"/>
  <path class="cls-1" d="M145.97,23.79l.54-2.63,8.37-3.02-.91,5.65h3.23l-1,4.87h-3.48l-1.15,4.9s-.54,1.84,2.66,1.75l-.88,4.81s-9.97,3.08-10.13-2.84l1.69-8.64h-2.18l1.15-4.84h2.06Z"/>
  <polygon class="cls-1" points="88.25 18.67 88.73 16.7 80.67 16.7 80.19 18.67 88.25 18.67"/>
  <polygon class="cls-1" points="87.64 22.03 88.13 20.06 80.07 20.06 79.58 22.03 87.64 22.03"/>
  <path class="cls-1" d="M48.13,23.72l-.42,2.18s-1.45-2.29-4.23-2.24c-5.65.1-8.64,4.05-9.37,9.75-.73,5.7,1.75,6.63,4.72,7s5.62-1.63,5.62-1.63l-2.18,9.91,7.98.3,5.38-24.91-7.5-.36ZM45.65,31.63s-1.37,5.04-2.98,4.51c-1.61-.52-1.93-1.77-.73-5.24,1.21-3.47,2.62-2.86,2.62-2.86,1.73.48,1.09,3.59,1.09,3.59Z"/>
</svg>