<?xml version="1.0" encoding="UTF-8"?>
<svg id="Capa_1" data-name="Capa 1" xmlns="http://www.w3.org/2000/svg" viewBox="0 0 524.98 475.13">
  <defs>
    <style>
      .cls-1 {
        fill: #fff;
      }
    </style>
  </defs>
  <circle class="cls-1" cx="261.29" cy="115.17" r="75.29"/>
  <circle class="cls-1" cx="413.6" cy="142.86" r="47.6"/>
  <circle class="cls-1" cx="108.98" cy="142.86" r="47.6"/>
  <path class="cls-1" d="M155.88,233.2c-18.74-15.35-35.7-13.32-57.37-13.32-32.4,0-58.76,26.2-58.76,58.41v94.51c0,13.99,11.41,25.36,25.45,25.36,60.6,0,53.3,1.1,53.3-2.61,0-66.97-7.93-116.08,37.38-162.34Z"/>
  <path class="cls-1" d="M281.9,220.23c-37.84-3.16-70.73.04-99.1,23.45-47.47,38.03-38.34,89.23-38.34,151.86,0,16.57,13.48,30.31,30.31,30.31,182.67,0,189.94,5.89,200.78-18.1,3.55-8.11,2.58-5.53,2.58-83.14,0-61.64-53.37-104.39-96.23-104.39h0Z"/>
  <path class="cls-1" d="M424.08,219.88c-21.78,0-38.66-2.01-57.37,13.32,44.97,45.92,37.38,91.68,37.38,162.34,0,3.73-6.06,2.61,52.39,2.61,14.54,0,26.36-11.78,26.36-26.26v-93.61c0-32.2-26.36-58.41-58.76-58.41Z"/>
</svg>