<?xml version="1.0" encoding="UTF-8"?>
<svg id="Capa_1" data-name="Capa 1" xmlns="http://www.w3.org/2000/svg" viewBox="0 0 524.98 475.13">
  <defs>
    <style>
      .cls-1 {
        fill: #fff;
      }
    </style>
  </defs>
  <path class="cls-1" d="M86.85,338.13c-16.53,33.06,8.26,72.72,46.28,72.72h216.52c38.01,0,62.81-39.67,46.28-72.72-28.1-57.85-85.95-97.52-153.71-97.52s-128.92,39.67-155.36,97.52h0Z"/>
  <path class="cls-1" d="M240.56,50.54c-42.97,0-79.33,34.71-79.33,79.33s34.71,79.33,79.33,79.33,79.33-34.71,79.33-79.33-34.71-79.33-79.33-79.33Z"/>
  <path class="cls-1" d="M471.96,186.07c6.61-6.61,3.31-16.53-4.96-18.18l-26.44-3.31c-3.31,0-6.61-3.31-8.26-4.96l-11.57-24.79c-3.31-8.26-14.88-8.26-18.18,0l-11.57,24.79c-1.65,3.31-4.96,4.96-8.26,4.96l-26.44,3.31c-8.26,1.65-11.57,11.57-4.96,18.18l19.83,18.18c1.65,1.65,3.31,6.61,3.31,9.92l-4.96,26.44c-1.65,8.26,8.26,14.88,14.88,11.57l24.79-13.22c3.31-1.65,6.61-1.65,9.92,0l24.79,13.22c8.26,3.31,16.53-1.65,14.88-11.57l-4.96-26.44c0-3.31,0-6.61,3.31-9.92l14.88-18.18Z"/>
</svg>