<?xml version="1.0" encoding="UTF-8"?>
<svg id="Capa_1" data-name="Capa 1" xmlns="http://www.w3.org/2000/svg" viewBox="0 0 524.98 475.13">
  <defs>
    <style>
      .cls-1 {
        fill: #fff;
        fill-rule: evenodd;
      }
    </style>
  </defs>
  <g id="Icon">
    <path class="cls-1" d="M331.81,234.06v-117.52H82.54v249.27h207.69c-7.27-14.84-11.83-30.14-11.83-44.51,0-38.02,21.71-71.02,53.42-87.24Z"/>
    <path class="cls-1" d="M331.81,98.73H82.54v-8.9c0-7.09,2.81-13.88,7.83-18.88,5-5.01,11.8-7.83,18.88-7.83h195.86c7.09,0,13.88,2.81,18.88,7.83,5.01,5,7.83,11.8,7.83,18.88v8.9Z"/>
    <path class="cls-1" d="M300.34,383.61H82.54v26.71c0,7.09,2.81,13.88,7.83,18.88,5,5.01,11.8,7.83,18.88,7.83h195.86c7.09,0,13.88-2.81,18.88-7.83,2.51-2.5,4.46-5.46,5.8-8.66-6.88-7.34-14.17-15.75-20.96-24.77-2.96-3.95-5.81-8.01-8.48-12.16ZM251.69,401.41h-71.22c-4.91,0-8.9,3.99-8.9,8.9s3.99,8.9,8.9,8.9h71.22c4.91,0,8.9-3.99,8.9-8.9s-3.99-8.9-8.9-8.9Z"/>
    <path class="cls-1" d="M376.32,241.17c44.22,0,80.12,35.9,80.12,80.12,0,20.99-11.97,43.97-26.86,63.78-21.15,28.16-47.6,49.93-47.6,49.93-3.29,2.71-8.03,2.71-11.32,0s-26.45-21.77-47.6-49.93c-14.89-19.81-26.86-42.79-26.86-63.78,0-44.22,35.9-80.12,80.12-80.12h0ZM376.32,276.78c-24.57,0-44.51,19.94-44.51,44.51s19.94,44.51,44.51,44.51,44.51-19.94,44.51-44.51-19.94-44.51-44.51-44.51ZM376.32,294.58c14.74,0,26.71,11.96,26.71,26.71s-11.96,26.71-26.71,26.71-26.71-11.96-26.71-26.71,11.96-26.71,26.71-26.71Z"/>
  </g>
</svg>